<?xml version="1.0" encoding="utf-8"?>
<!-- Generator: Adobe Illustrator 24.3.0, SVG Export Plug-In . SVG Version: 6.00 Build 0)  -->
<svg version="1.1" id="Layer_1" xmlns="http://www.w3.org/2000/svg" xmlns:xlink="http://www.w3.org/1999/xlink" x="0px" y="0px"
	 viewBox="0 0 1214.5 803.3" style="enable-background:new 0 0 1214.5 803.3;" xml:space="preserve">
<style type="text/css">
	.st0{fill:url(#Path_146_1_);}
	.st1{fill:url(#Path_147_1_);}
	.st2{fill:url(#Path_148_1_);}
	.st3{fill:url(#Path_149_1_);}
	.st4{fill:url(#Path_150_1_);}
	.st5{fill:url(#Path_151_1_);}
	.st6{fill:url(#Path_152_1_);}
	.st7{fill:url(#Path_153_1_);}
	.st8{fill:url(#Path_154_1_);}
	.st9{fill:url(#Path_155_1_);}
	.st10{fill:url(#Path_156_1_);}
	.st11{fill:url(#Path_157_1_);}
	.st12{fill:url(#Path_158_1_);}
	.st13{fill:url(#Path_159_1_);}
	.st14{fill:url(#Path_160_1_);}
	.st15{fill:url(#Path_161_1_);}
	.st16{fill:url(#Path_162_1_);}
	.st17{fill:url(#Path_163_1_);}
	.st18{fill:url(#Path_164_1_);}
	.st19{fill:url(#Path_165_1_);}
	.st20{fill:url(#Path_166_1_);}
	.st21{fill:url(#Path_167_1_);}
	.st22{fill:url(#Path_168_1_);}
	.st23{fill:url(#Path_169_1_);}
	.st24{fill:url(#Path_170_1_);}
	.st25{fill:url(#Path_171_1_);}
	.st26{fill:url(#Path_172_1_);}
	.st27{fill:url(#Path_173_1_);}
</style>
<g id="Group_214" transform="translate(-85.394 -267.061)">
	
		<linearGradient id="Path_146_1_" gradientUnits="userSpaceOnUse" x1="10.197" y1="1053.1539" x2="9.567" y2="1054.059" gradientTransform="matrix(162.1609 -43.4779 -145.09 -541.1464 151449.625 571331.375)">
		<stop  offset="0" style="stop-color:#FDEDC9"/>
		<stop  offset="2.200000e-02" style="stop-color:#F2DDB2"/>
		<stop  offset="6.800000e-02" style="stop-color:#D6B678"/>
		<stop  offset="7.900000e-02" style="stop-color:#D0AD6A"/>
		<stop  offset="9.000000e-02" style="stop-color:#C7A261"/>
		<stop  offset="0.137" style="stop-color:#A47B3E"/>
		<stop  offset="0.183" style="stop-color:#895C23"/>
		<stop  offset="0.228" style="stop-color:#75460F"/>
		<stop  offset="0.271" style="stop-color:#693903"/>
		<stop  offset="0.31" style="stop-color:#663500"/>
		<stop  offset="0.35" style="stop-color:#6A3A04"/>
		<stop  offset="0.402" style="stop-color:#794A13"/>
		<stop  offset="0.46" style="stop-color:#90652A"/>
		<stop  offset="0.522" style="stop-color:#B0894A"/>
		<stop  offset="0.573" style="stop-color:#D0AD6A"/>
		<stop  offset="0.667" style="stop-color:#ECD5A6"/>
		<stop  offset="0.727" style="stop-color:#FDEDC9"/>
		<stop  offset="0.759" style="stop-color:#F2DDB2"/>
		<stop  offset="0.825" style="stop-color:#D6B678"/>
		<stop  offset="0.841" style="stop-color:#D0AD6A"/>
		<stop  offset="0.95" style="stop-color:#84571E"/>
		<stop  offset="1" style="stop-color:#663500"/>
	</linearGradient>
	<path id="Path_146" class="st0" d="M326.9,914c4.6,10.8,6.5,23,4.3,27.2l-67,127.7c-2.2,4.2-7.7-1.1-12.3-11.9L90.6,675.4
		c-4.6-10.8-6.5-23-4.3-27.2l67-127.7c2.2-4.2,7.7,1.1,12.3,11.9L326.9,914z"/>
	
		<linearGradient id="Path_147_1_" gradientUnits="userSpaceOnUse" x1="4.8669" y1="1047.6326" x2="5.6089" y2="1048.4956" gradientTransform="matrix(158.9831 -42.6259 -144.1024 -537.4631 150446.1094 567444.125)">
		<stop  offset="5.500000e-02" style="stop-color:#000000"/>
		<stop  offset="0.323" style="stop-color:#070707"/>
		<stop  offset="0.727" style="stop-color:#1C1C1C"/>
		<stop  offset="1" style="stop-color:#2E2E2E"/>
	</linearGradient>
	<path id="Path_147" class="st1" d="M326.2,914.9c4.5,10.8,6.4,22.9,4.3,27l-65.3,126.5c-2.2,4.2-7.6-1.1-12.1-11.9L93.5,677.5
		c-4.5-10.8-6.4-22.9-4.3-27l65.3-126.5c2.2-4.2,7.6,1.1,12.1,11.9L326.2,914.9z"/>
	<g id="Group_191" transform="translate(125.505 687.35) rotate(-16)">
		
			<linearGradient id="Path_148_1_" gradientUnits="userSpaceOnUse" x1="-218.9839" y1="312.0764" x2="-224.6929" y2="325.8665" gradientTransform="matrix(10.199 3.2646 2.9245 -11.3852 1395.9907 4490.2783)">
			<stop  offset="0" style="stop-color:#FDEDC9"/>
			<stop  offset="2.200000e-02" style="stop-color:#F2DDB2"/>
			<stop  offset="6.800000e-02" style="stop-color:#D6B678"/>
			<stop  offset="7.900000e-02" style="stop-color:#D0AD6A"/>
			<stop  offset="9.000000e-02" style="stop-color:#C7A261"/>
			<stop  offset="0.137" style="stop-color:#A47B3E"/>
			<stop  offset="0.183" style="stop-color:#895C23"/>
			<stop  offset="0.228" style="stop-color:#75460F"/>
			<stop  offset="0.271" style="stop-color:#693903"/>
			<stop  offset="0.31" style="stop-color:#663500"/>
			<stop  offset="0.35" style="stop-color:#6A3A04"/>
			<stop  offset="0.402" style="stop-color:#794A13"/>
			<stop  offset="0.46" style="stop-color:#90652A"/>
			<stop  offset="0.522" style="stop-color:#B0894A"/>
			<stop  offset="0.573" style="stop-color:#D0AD6A"/>
			<stop  offset="0.667" style="stop-color:#ECD5A6"/>
			<stop  offset="0.727" style="stop-color:#FDEDC9"/>
			<stop  offset="0.759" style="stop-color:#F2DDB2"/>
			<stop  offset="0.825" style="stop-color:#D6B678"/>
			<stop  offset="0.841" style="stop-color:#D0AD6A"/>
			<stop  offset="0.95" style="stop-color:#84571E"/>
			<stop  offset="1" style="stop-color:#663500"/>
		</linearGradient>
		<path id="Path_148" class="st2" d="M-13.5-27.6l-6.6-6.7l-0.3,0.1l-0.3,9.2c0,0.6-0.1,1.1-0.3,1.7c-0.2,0.3-0.4,0.5-0.7,0.6
			l0.1,0.3l3.1-1.2l-0.1-0.3c-0.3,0.1-0.7,0.2-1,0.1c-0.2,0-0.3-0.1-0.4-0.3C-20-24.4-20-24.7-20-25l0.1-1.8l3.8-1.4l1.1,1.2
			c0.3,0.2,0.5,0.5,0.7,0.9c0.1,0.2,0,0.3-0.1,0.5c-0.2,0.2-0.4,0.4-0.7,0.5l0.1,0.3l3.9-1.5l-0.1-0.3c-0.3,0.1-0.7,0.1-1.1,0
			C-12.7-26.9-13.1-27.2-13.5-27.6z M-19.9-27.4l0.2-4.5l3.2,3.2L-19.9-27.4z"/>
		
			<linearGradient id="Path_149_1_" gradientUnits="userSpaceOnUse" x1="-227.2685" y1="318.673" x2="-234.1355" y2="333.881" gradientTransform="matrix(8.4187 2.9377 2.414 -10.2451 1186.9766 4068.2302)">
			<stop  offset="0" style="stop-color:#FDEDC9"/>
			<stop  offset="2.200000e-02" style="stop-color:#F2DDB2"/>
			<stop  offset="6.800000e-02" style="stop-color:#D6B678"/>
			<stop  offset="7.900000e-02" style="stop-color:#D0AD6A"/>
			<stop  offset="9.000000e-02" style="stop-color:#C7A261"/>
			<stop  offset="0.137" style="stop-color:#A47B3E"/>
			<stop  offset="0.183" style="stop-color:#895C23"/>
			<stop  offset="0.228" style="stop-color:#75460F"/>
			<stop  offset="0.271" style="stop-color:#693903"/>
			<stop  offset="0.31" style="stop-color:#663500"/>
			<stop  offset="0.35" style="stop-color:#6A3A04"/>
			<stop  offset="0.402" style="stop-color:#794A13"/>
			<stop  offset="0.46" style="stop-color:#90652A"/>
			<stop  offset="0.522" style="stop-color:#B0894A"/>
			<stop  offset="0.573" style="stop-color:#D0AD6A"/>
			<stop  offset="0.667" style="stop-color:#ECD5A6"/>
			<stop  offset="0.727" style="stop-color:#FDEDC9"/>
			<stop  offset="0.759" style="stop-color:#F2DDB2"/>
			<stop  offset="0.825" style="stop-color:#D6B678"/>
			<stop  offset="0.841" style="stop-color:#D0AD6A"/>
			<stop  offset="0.95" style="stop-color:#84571E"/>
			<stop  offset="1" style="stop-color:#663500"/>
		</linearGradient>
		<path id="Path_149" class="st3" d="M-17.9-14.9l6.5,3.7l2.2-7l-6.5-3.7L-17.9-14.9z"/>
		
			<linearGradient id="Path_150_1_" gradientUnits="userSpaceOnUse" x1="-226.1963" y1="321.5532" x2="-231.9053" y2="335.3412" gradientTransform="matrix(10.2028 3.2649 2.9256 -11.3861 1531.1373 4807.7344)">
			<stop  offset="0" style="stop-color:#FDEDC9"/>
			<stop  offset="2.200000e-02" style="stop-color:#F2DDB2"/>
			<stop  offset="6.800000e-02" style="stop-color:#D6B678"/>
			<stop  offset="7.900000e-02" style="stop-color:#D0AD6A"/>
			<stop  offset="9.000000e-02" style="stop-color:#C7A261"/>
			<stop  offset="0.137" style="stop-color:#A47B3E"/>
			<stop  offset="0.183" style="stop-color:#895C23"/>
			<stop  offset="0.228" style="stop-color:#75460F"/>
			<stop  offset="0.271" style="stop-color:#693903"/>
			<stop  offset="0.31" style="stop-color:#663500"/>
			<stop  offset="0.35" style="stop-color:#6A3A04"/>
			<stop  offset="0.402" style="stop-color:#794A13"/>
			<stop  offset="0.46" style="stop-color:#90652A"/>
			<stop  offset="0.522" style="stop-color:#B0894A"/>
			<stop  offset="0.573" style="stop-color:#D0AD6A"/>
			<stop  offset="0.667" style="stop-color:#ECD5A6"/>
			<stop  offset="0.727" style="stop-color:#FDEDC9"/>
			<stop  offset="0.759" style="stop-color:#F2DDB2"/>
			<stop  offset="0.825" style="stop-color:#D6B678"/>
			<stop  offset="0.841" style="stop-color:#D0AD6A"/>
			<stop  offset="0.95" style="stop-color:#84571E"/>
			<stop  offset="1" style="stop-color:#663500"/>
		</linearGradient>
		<path id="Path_150" class="st4" d="M120.4,283.9l0.1,0.3c0.3-0.1,0.7-0.2,1-0.1c0.2,0,0.3,0.1,0.4,0.3c0.1,0.3,0.1,0.6,0.1,0.9
			l-0.1,1.8l-3.8,1.4l-1.2-1.2c-0.3-0.2-0.5-0.5-0.7-0.9c-0.1-0.2,0-0.3,0-0.5c0.2-0.2,0.4-0.4,0.7-0.5l-0.1-0.3l-3.9,1.5l0.1,0.3
			c0.3-0.1,0.7-0.1,1.1,0c0.5,0.2,0.9,0.6,1.3,1l6.6,6.7l0.3-0.1l0.3-9.2c0-0.6,0.1-1.1,0.3-1.7c0.2-0.2,0.4-0.4,0.7-0.6l-0.1-0.3
			L120.4,283.9z M121.8,292.2l-3.2-3.2l3.4-1.3L121.8,292.2z"/>
		
			<linearGradient id="Path_151_1_" gradientUnits="userSpaceOnUse" x1="-234.542" y1="327.2495" x2="-241.409" y2="342.4565" gradientTransform="matrix(8.4187 2.9377 2.414 -10.2451 1316.1326 4361.6519)">
			<stop  offset="0" style="stop-color:#FDEDC9"/>
			<stop  offset="2.200000e-02" style="stop-color:#F2DDB2"/>
			<stop  offset="6.800000e-02" style="stop-color:#D6B678"/>
			<stop  offset="7.900000e-02" style="stop-color:#D0AD6A"/>
			<stop  offset="9.000000e-02" style="stop-color:#C7A261"/>
			<stop  offset="0.137" style="stop-color:#A47B3E"/>
			<stop  offset="0.183" style="stop-color:#895C23"/>
			<stop  offset="0.228" style="stop-color:#75460F"/>
			<stop  offset="0.271" style="stop-color:#693903"/>
			<stop  offset="0.31" style="stop-color:#663500"/>
			<stop  offset="0.35" style="stop-color:#6A3A04"/>
			<stop  offset="0.402" style="stop-color:#794A13"/>
			<stop  offset="0.46" style="stop-color:#90652A"/>
			<stop  offset="0.522" style="stop-color:#B0894A"/>
			<stop  offset="0.573" style="stop-color:#D0AD6A"/>
			<stop  offset="0.667" style="stop-color:#ECD5A6"/>
			<stop  offset="0.727" style="stop-color:#FDEDC9"/>
			<stop  offset="0.759" style="stop-color:#F2DDB2"/>
			<stop  offset="0.825" style="stop-color:#D6B678"/>
			<stop  offset="0.841" style="stop-color:#D0AD6A"/>
			<stop  offset="0.95" style="stop-color:#84571E"/>
			<stop  offset="1" style="stop-color:#663500"/>
		</linearGradient>
		<path id="Path_151" class="st5" d="M120,275.2l-6.5-3.7l-2.2,7l6.5,3.7L120,275.2z"/>
		
			<linearGradient id="Path_152_1_" gradientUnits="userSpaceOnUse" x1="-215.3697" y1="320.7894" x2="-216.9407" y2="324.2684" gradientTransform="matrix(36.8019 12.8447 10.5527 -44.7948 4628.0518 17363.8379)">
			<stop  offset="0" style="stop-color:#FDEDC9"/>
			<stop  offset="2.200000e-02" style="stop-color:#F2DDB2"/>
			<stop  offset="6.800000e-02" style="stop-color:#D6B678"/>
			<stop  offset="7.900000e-02" style="stop-color:#D0AD6A"/>
			<stop  offset="9.000000e-02" style="stop-color:#C7A261"/>
			<stop  offset="0.137" style="stop-color:#A47B3E"/>
			<stop  offset="0.183" style="stop-color:#895C23"/>
			<stop  offset="0.228" style="stop-color:#75460F"/>
			<stop  offset="0.271" style="stop-color:#693903"/>
			<stop  offset="0.31" style="stop-color:#663500"/>
			<stop  offset="0.35" style="stop-color:#6A3A04"/>
			<stop  offset="0.402" style="stop-color:#794A13"/>
			<stop  offset="0.46" style="stop-color:#90652A"/>
			<stop  offset="0.522" style="stop-color:#B0894A"/>
			<stop  offset="0.573" style="stop-color:#D0AD6A"/>
			<stop  offset="0.667" style="stop-color:#ECD5A6"/>
			<stop  offset="0.727" style="stop-color:#FDEDC9"/>
			<stop  offset="0.759" style="stop-color:#F2DDB2"/>
			<stop  offset="0.825" style="stop-color:#D6B678"/>
			<stop  offset="0.841" style="stop-color:#D0AD6A"/>
			<stop  offset="0.95" style="stop-color:#84571E"/>
			<stop  offset="1" style="stop-color:#663500"/>
		</linearGradient>
		<path id="Path_152" class="st6" d="M31.9,137.4l28.5,16.1l9.8-30.5l-28.5-16.1L31.9,137.4z"/>
	</g>
	<g id="Group_195" transform="matrix(0.966, -0.259, 0.259, 0.966, 416.052, 468.109)">
		<g id="Group_193" transform="translate(0 4.859)">
			
				<image style="overflow:visible;enable-background:new    ;" width="361" height="500" id="Rectangle_40" xlink:href="8C6DABF2.png"  transform="matrix(0.3447 0 0 0.3447 -22.2206 -33.9405)">
			</image>
		</g>
		
			<linearGradient id="Path_153_1_" gradientUnits="userSpaceOnUse" x1="-544.2775" y1="460.3998" x2="-544.2855" y2="461.5658" gradientTransform="matrix(119.7045 44.7553 32.0947 -166.9253 50418.9922 101336.3906)">
			<stop  offset="0" style="stop-color:#FDEDC9"/>
			<stop  offset="2.200000e-02" style="stop-color:#F2DDB2"/>
			<stop  offset="6.800000e-02" style="stop-color:#D6B678"/>
			<stop  offset="7.900000e-02" style="stop-color:#D0AD6A"/>
			<stop  offset="9.000000e-02" style="stop-color:#C7A261"/>
			<stop  offset="0.137" style="stop-color:#A47B3E"/>
			<stop  offset="0.183" style="stop-color:#895C23"/>
			<stop  offset="0.228" style="stop-color:#75460F"/>
			<stop  offset="0.271" style="stop-color:#693903"/>
			<stop  offset="0.31" style="stop-color:#663500"/>
			<stop  offset="0.35" style="stop-color:#6A3A04"/>
			<stop  offset="0.402" style="stop-color:#794A13"/>
			<stop  offset="0.46" style="stop-color:#90652A"/>
			<stop  offset="0.522" style="stop-color:#B0894A"/>
			<stop  offset="0.573" style="stop-color:#D0AD6A"/>
			<stop  offset="0.667" style="stop-color:#ECD5A6"/>
			<stop  offset="0.727" style="stop-color:#FDEDC9"/>
			<stop  offset="0.759" style="stop-color:#F2DDB2"/>
			<stop  offset="0.825" style="stop-color:#D6B678"/>
			<stop  offset="0.841" style="stop-color:#D0AD6A"/>
			<stop  offset="0.95" style="stop-color:#84571E"/>
			<stop  offset="1" style="stop-color:#663500"/>
		</linearGradient>
		<path id="Path_153" class="st7" d="M104.5,126.5c0.2,4.3-2.5,8-5.9,8.1l-104.7,4.3c-3.5,0.1-6.4-3.3-6.6-7.6l-6.6-152.8
			c-0.2-4.3,2.5-8,5.9-8.1l104.7-4.3c3.5-0.1,6.4,3.3,6.6,7.6L104.5,126.5z"/>
		
			<linearGradient id="Path_154_1_" gradientUnits="userSpaceOnUse" x1="-545.4051" y1="459.3728" x2="-544.3311" y2="460.2998" gradientTransform="matrix(117.3558 43.8768 31.465 -163.6484 49434.6289 99353.5469)">
			<stop  offset="5.500000e-02" style="stop-color:#000000"/>
			<stop  offset="0.323" style="stop-color:#070707"/>
			<stop  offset="0.727" style="stop-color:#1C1C1C"/>
			<stop  offset="1" style="stop-color:#2E2E2E"/>
		</linearGradient>
		<path id="Path_154" class="st8" d="M103.4,126.9c0.2,4.3-2.4,7.8-5.8,7.9L-5.1,139c-3.4,0.1-6.3-3.2-6.5-7.4l-6.5-149.8
			c-0.2-4.3,2.4-7.8,5.8-7.9l102.7-4.2c3.4-0.1,6.3,3.2,6.5,7.4L103.4,126.9z"/>
		<g id="Group_194" transform="translate(9.157 16.64)">
			
				<linearGradient id="Path_155_1_" gradientUnits="userSpaceOnUse" x1="-567.551" y1="434.572" x2="-567.7581" y2="449.962" gradientTransform="matrix(10.8945 2.7879 2.921 -10.398 4900.9551 6303.9429)">
				<stop  offset="0" style="stop-color:#FDEDC9"/>
				<stop  offset="2.200000e-02" style="stop-color:#F2DDB2"/>
				<stop  offset="6.800000e-02" style="stop-color:#D6B678"/>
				<stop  offset="7.900000e-02" style="stop-color:#D0AD6A"/>
				<stop  offset="9.000000e-02" style="stop-color:#C7A261"/>
				<stop  offset="0.137" style="stop-color:#A47B3E"/>
				<stop  offset="0.183" style="stop-color:#895C23"/>
				<stop  offset="0.228" style="stop-color:#75460F"/>
				<stop  offset="0.271" style="stop-color:#693903"/>
				<stop  offset="0.31" style="stop-color:#663500"/>
				<stop  offset="0.35" style="stop-color:#6A3A04"/>
				<stop  offset="0.402" style="stop-color:#794A13"/>
				<stop  offset="0.46" style="stop-color:#90652A"/>
				<stop  offset="0.522" style="stop-color:#B0894A"/>
				<stop  offset="0.573" style="stop-color:#D0AD6A"/>
				<stop  offset="0.667" style="stop-color:#ECD5A6"/>
				<stop  offset="0.727" style="stop-color:#FDEDC9"/>
				<stop  offset="0.759" style="stop-color:#F2DDB2"/>
				<stop  offset="0.825" style="stop-color:#D6B678"/>
				<stop  offset="0.841" style="stop-color:#D0AD6A"/>
				<stop  offset="0.95" style="stop-color:#84571E"/>
				<stop  offset="1" style="stop-color:#663500"/>
			</linearGradient>
			<path id="Path_155" class="st9" d="M-18.4-23.6c-0.3,0-0.7,0-1-0.2c-0.1-0.1-0.2-0.2-0.2-0.4c0-0.3,0.1-0.6,0.2-0.9l0.6-1.7
				l4.1-0.2l0.7,1.5c0.2,0.3,0.3,0.7,0.4,1c0,0.2-0.1,0.3-0.2,0.4c-0.3,0.2-0.5,0.2-0.8,0.2l0,0.3l4.2-0.2l0-0.3
				c-0.4,0-0.7-0.1-1-0.3c-0.4-0.4-0.7-0.8-0.9-1.3l-4.1-8.4l-0.3,0l-3.4,8.6c-0.2,0.6-0.5,1.1-0.8,1.5c-0.3,0.2-0.5,0.3-0.8,0.3
				l0,0.3l3.3-0.1L-18.4-23.6z M-16.9-31.6l2,4.1l-3.6,0.1L-16.9-31.6z"/>
			
				<linearGradient id="Path_156_1_" gradientUnits="userSpaceOnUse" x1="-566.4964" y1="436.5595" x2="-566.6844" y2="450.3215" gradientTransform="matrix(11.941 3.1166 3.2016 -11.6242 5353.8389 7043.0972)">
				<stop  offset="0" style="stop-color:#FDEDC9"/>
				<stop  offset="2.200000e-02" style="stop-color:#F2DDB2"/>
				<stop  offset="6.800000e-02" style="stop-color:#D6B678"/>
				<stop  offset="7.900000e-02" style="stop-color:#D0AD6A"/>
				<stop  offset="9.000000e-02" style="stop-color:#C7A261"/>
				<stop  offset="0.137" style="stop-color:#A47B3E"/>
				<stop  offset="0.183" style="stop-color:#895C23"/>
				<stop  offset="0.228" style="stop-color:#75460F"/>
				<stop  offset="0.271" style="stop-color:#693903"/>
				<stop  offset="0.31" style="stop-color:#663500"/>
				<stop  offset="0.35" style="stop-color:#6A3A04"/>
				<stop  offset="0.402" style="stop-color:#794A13"/>
				<stop  offset="0.46" style="stop-color:#90652A"/>
				<stop  offset="0.522" style="stop-color:#B0894A"/>
				<stop  offset="0.573" style="stop-color:#D0AD6A"/>
				<stop  offset="0.667" style="stop-color:#ECD5A6"/>
				<stop  offset="0.727" style="stop-color:#FDEDC9"/>
				<stop  offset="0.759" style="stop-color:#F2DDB2"/>
				<stop  offset="0.825" style="stop-color:#D6B678"/>
				<stop  offset="0.841" style="stop-color:#D0AD6A"/>
				<stop  offset="0.95" style="stop-color:#84571E"/>
				<stop  offset="1" style="stop-color:#663500"/>
			</linearGradient>
			<path id="Path_156" class="st10" d="M-12.8-16.2c-0.6,0-1.3,0.3-1.7,0.7c0.7-0.6,1.1-1.5,1.1-2.5c-0.1-1.5-1.4-2.7-2.9-2.6
				c-1.5,0-2.7,1.3-2.7,2.8c0,0,0,0,0,0c0.1,0.9,0.5,1.8,1.3,2.4c-0.5-0.4-1.2-0.5-1.8-0.5c-1.5,0-2.7,1.3-2.7,2.8c0,0,0,0,0,0v0v0
				c0,0.2,0,0.3,0.1,0.5c0.3,1.3,1.5,2.1,2.8,2.1c1.5,0,2.7-1.3,2.7-2.8c0,0,0,0,0,0c0-0.1,0-0.2,0-0.2c0.1,0.1,0.3,0.1,0.4,0.2
				c-0.1,1.1-0.3,4.1-0.9,4.8l2.5-0.1c-0.7-0.6-1.1-3.6-1.3-4.7c0.1-0.1,0.3-0.1,0.4-0.2c0,0.1,0,0.2,0,0.2c0.1,1.5,1.4,2.7,3,2.6
				c1.3-0.1,2.3-1,2.6-2.3c0-0.2,0-0.3,0-0.5v0C-10-15.2-11.3-16.3-12.8-16.2z"/>
			
				<linearGradient id="Path_157_1_" gradientUnits="userSpaceOnUse" x1="-570.9244" y1="446.538" x2="-571.1314" y2="461.93" gradientTransform="matrix(10.8917 2.7876 2.9202 -10.3971 4998.8105 6435.8501)">
				<stop  offset="0" style="stop-color:#FDEDC9"/>
				<stop  offset="2.200000e-02" style="stop-color:#F2DDB2"/>
				<stop  offset="6.800000e-02" style="stop-color:#D6B678"/>
				<stop  offset="7.900000e-02" style="stop-color:#D0AD6A"/>
				<stop  offset="9.000000e-02" style="stop-color:#C7A261"/>
				<stop  offset="0.137" style="stop-color:#A47B3E"/>
				<stop  offset="0.183" style="stop-color:#895C23"/>
				<stop  offset="0.228" style="stop-color:#75460F"/>
				<stop  offset="0.271" style="stop-color:#693903"/>
				<stop  offset="0.31" style="stop-color:#663500"/>
				<stop  offset="0.35" style="stop-color:#6A3A04"/>
				<stop  offset="0.402" style="stop-color:#794A13"/>
				<stop  offset="0.46" style="stop-color:#90652A"/>
				<stop  offset="0.522" style="stop-color:#B0894A"/>
				<stop  offset="0.573" style="stop-color:#D0AD6A"/>
				<stop  offset="0.667" style="stop-color:#ECD5A6"/>
				<stop  offset="0.727" style="stop-color:#FDEDC9"/>
				<stop  offset="0.759" style="stop-color:#F2DDB2"/>
				<stop  offset="0.825" style="stop-color:#D6B678"/>
				<stop  offset="0.841" style="stop-color:#D0AD6A"/>
				<stop  offset="0.95" style="stop-color:#84571E"/>
				<stop  offset="1" style="stop-color:#663500"/>
			</linearGradient>
			<path id="Path_157" class="st11" d="M85.3,99c0.3,0,0.7,0,1,0.2c0.1,0.1,0.2,0.2,0.3,0.4c0,0.3-0.1,0.6-0.2,0.9l-0.7,1.7
				l-4.1,0.2l-0.7-1.5c-0.2-0.3-0.3-0.7-0.4-1c0-0.2,0.1-0.3,0.2-0.4c0.3-0.2,0.6-0.2,0.9-0.2l0-0.3L77.4,99l0,0.3
				c0.4,0,0.7,0.1,1,0.3c0.4,0.4,0.7,0.8,0.9,1.3l4.1,8.4l0.3,0l3.4-8.6c0.2-0.6,0.5-1.1,0.8-1.5c0.2-0.2,0.5-0.3,0.8-0.3l0-0.3
				l-3.3,0.1L85.3,99z M83.8,106.9l-2-4.1l3.6-0.1L83.8,106.9z"/>
			
				<linearGradient id="Path_158_1_" gradientUnits="userSpaceOnUse" x1="-568.8909" y1="445.0284" x2="-569.08" y2="458.7904" gradientTransform="matrix(11.9388 3.1169 3.201 -11.6252 5451.9565 7148.3901)">
				<stop  offset="0" style="stop-color:#FDEDC9"/>
				<stop  offset="2.200000e-02" style="stop-color:#F2DDB2"/>
				<stop  offset="6.800000e-02" style="stop-color:#D6B678"/>
				<stop  offset="7.900000e-02" style="stop-color:#D0AD6A"/>
				<stop  offset="9.000000e-02" style="stop-color:#C7A261"/>
				<stop  offset="0.137" style="stop-color:#A47B3E"/>
				<stop  offset="0.183" style="stop-color:#895C23"/>
				<stop  offset="0.228" style="stop-color:#75460F"/>
				<stop  offset="0.271" style="stop-color:#693903"/>
				<stop  offset="0.31" style="stop-color:#663500"/>
				<stop  offset="0.35" style="stop-color:#6A3A04"/>
				<stop  offset="0.402" style="stop-color:#794A13"/>
				<stop  offset="0.46" style="stop-color:#90652A"/>
				<stop  offset="0.522" style="stop-color:#B0894A"/>
				<stop  offset="0.573" style="stop-color:#D0AD6A"/>
				<stop  offset="0.667" style="stop-color:#ECD5A6"/>
				<stop  offset="0.727" style="stop-color:#FDEDC9"/>
				<stop  offset="0.759" style="stop-color:#F2DDB2"/>
				<stop  offset="0.825" style="stop-color:#D6B678"/>
				<stop  offset="0.841" style="stop-color:#D0AD6A"/>
				<stop  offset="0.95" style="stop-color:#84571E"/>
				<stop  offset="1" style="stop-color:#663500"/>
			</linearGradient>
			<path id="Path_158" class="st12" d="M89.2,88.5c0-0.2,0-0.3-0.1-0.5c-0.3-1.3-1.5-2.1-2.8-2.1c-1.5,0-2.7,1.3-2.7,2.8
				c0,0,0,0,0,0c0,0.1,0,0.2,0,0.2c-0.1-0.1-0.3-0.1-0.4-0.2c0.1-1.1,0.3-4.1,0.9-4.8l-2.5,0.1c0.7,0.6,1.1,3.6,1.3,4.7
				c-0.1,0.1-0.3,0.1-0.4,0.2c0-0.1,0-0.2,0-0.2c-0.1-1.5-1.4-2.7-2.9-2.6c-1.3,0-2.4,1-2.6,2.3c0,0.2,0,0.4,0,0.5v0
				c0.1,1.5,1.4,2.7,2.9,2.6c0.6,0,1.3-0.3,1.8-0.7c-0.7,0.6-1.1,1.6-1.1,2.5c0.1,1.5,1.4,2.7,2.9,2.6c1.5,0,2.7-1.3,2.7-2.8
				c0,0,0,0,0,0c-0.1-0.9-0.5-1.8-1.3-2.4c0.5,0.4,1.2,0.5,1.8,0.5C88,91.3,89.2,90,89.2,88.5C89.2,88.5,89.2,88.5,89.2,88.5
				L89.2,88.5L89.2,88.5z"/>
			
				<linearGradient id="Path_159_1_" gradientUnits="userSpaceOnUse" x1="-555.5121" y1="442.9097" x2="-555.5572" y2="446.1887" gradientTransform="matrix(50.0911 13.0758 13.4302 -48.7693 21913.8164 29066.3691)">
				<stop  offset="0" style="stop-color:#FDEDC9"/>
				<stop  offset="2.200000e-02" style="stop-color:#F2DDB2"/>
				<stop  offset="6.800000e-02" style="stop-color:#D6B678"/>
				<stop  offset="7.900000e-02" style="stop-color:#D0AD6A"/>
				<stop  offset="9.000000e-02" style="stop-color:#C7A261"/>
				<stop  offset="0.137" style="stop-color:#A47B3E"/>
				<stop  offset="0.183" style="stop-color:#895C23"/>
				<stop  offset="0.228" style="stop-color:#75460F"/>
				<stop  offset="0.271" style="stop-color:#693903"/>
				<stop  offset="0.31" style="stop-color:#663500"/>
				<stop  offset="0.35" style="stop-color:#6A3A04"/>
				<stop  offset="0.402" style="stop-color:#794A13"/>
				<stop  offset="0.46" style="stop-color:#90652A"/>
				<stop  offset="0.522" style="stop-color:#B0894A"/>
				<stop  offset="0.573" style="stop-color:#D0AD6A"/>
				<stop  offset="0.667" style="stop-color:#ECD5A6"/>
				<stop  offset="0.727" style="stop-color:#FDEDC9"/>
				<stop  offset="0.759" style="stop-color:#F2DDB2"/>
				<stop  offset="0.825" style="stop-color:#D6B678"/>
				<stop  offset="0.841" style="stop-color:#D0AD6A"/>
				<stop  offset="0.95" style="stop-color:#84571E"/>
				<stop  offset="1" style="stop-color:#663500"/>
			</linearGradient>
			<path id="Path_159" class="st13" d="M47.4,31.1c-5.2,0.2-7.1,3.1-7.3,2.8s4.8-3.3,4.5-10.5c-0.4-6.4-5.8-11.2-12.2-10.9
				C26,12.8,21,18.1,21.2,24.4c0,0,0,0,0,0c0.3,7.1,5.6,9.8,5.4,10.1c-0.3,0.3-2.5-2.5-7.5-2.3c-6.4,0.2-11.4,5.4-11.2,11.8
				c0,0,0,0,0,0v0c0,0,0,0,0,0c0,0.7,0.1,1.5,0.3,2.2c1.4,5.3,6.4,8.9,11.9,8.6c6.4-0.2,11.4-5.4,11.2-11.8c0,0,0,0,0,0
				c0-0.3,0-0.6-0.1-1c0.6,0.3,1.2,0.6,1.8,0.8c-0.2,4.8-1.1,17.1-3.6,20l10.5-0.4C37,60,35.1,47.7,34.5,43c0.6-0.3,1.2-0.6,1.7-1
				c0,0.3,0,0.7,0,1c0.5,6.5,6.1,11.3,12.6,10.9c5.3-0.4,9.7-4.3,10.7-9.5c0.1-0.7,0.2-1.5,0.1-2.2v0v0
				C59.3,35.7,53.8,30.8,47.4,31.1z"/>
		</g>
	</g>
	<g id="Group_198" transform="matrix(0.966, -0.259, 0.259, 0.966, 771.592, 368.31)">
		<g id="Group_196" transform="translate(0 4.755)">
			
				<image style="overflow:visible;enable-background:new    ;" width="396" height="520" id="Rectangle_41" xlink:href="8C6DABF5.png"  transform="matrix(0.3447 0 0 0.3447 -22.2206 -33.9406)">
			</image>
		</g>
		
			<linearGradient id="Path_160_1_" gradientUnits="userSpaceOnUse" x1="-913.4615" y1="464.7104" x2="-913.1085" y2="465.8033" gradientTransform="matrix(132.1281 46.7201 35.4257 -174.2533 104263.5313 123780.9531)">
			<stop  offset="0" style="stop-color:#FDEDC9"/>
			<stop  offset="2.200000e-02" style="stop-color:#F2DDB2"/>
			<stop  offset="6.800000e-02" style="stop-color:#D6B678"/>
			<stop  offset="7.900000e-02" style="stop-color:#D0AD6A"/>
			<stop  offset="9.000000e-02" style="stop-color:#C7A261"/>
			<stop  offset="0.137" style="stop-color:#A47B3E"/>
			<stop  offset="0.183" style="stop-color:#895C23"/>
			<stop  offset="0.228" style="stop-color:#75460F"/>
			<stop  offset="0.271" style="stop-color:#693903"/>
			<stop  offset="0.31" style="stop-color:#663500"/>
			<stop  offset="0.35" style="stop-color:#6A3A04"/>
			<stop  offset="0.402" style="stop-color:#794A13"/>
			<stop  offset="0.46" style="stop-color:#90652A"/>
			<stop  offset="0.522" style="stop-color:#B0894A"/>
			<stop  offset="0.573" style="stop-color:#D0AD6A"/>
			<stop  offset="0.667" style="stop-color:#ECD5A6"/>
			<stop  offset="0.727" style="stop-color:#FDEDC9"/>
			<stop  offset="0.759" style="stop-color:#F2DDB2"/>
			<stop  offset="0.825" style="stop-color:#D6B678"/>
			<stop  offset="0.841" style="stop-color:#D0AD6A"/>
			<stop  offset="0.95" style="stop-color:#84571E"/>
			<stop  offset="1" style="stop-color:#663500"/>
		</linearGradient>
		<path id="Path_160" class="st14" d="M97.6,139.4c-0.6,4.3-3.8,7.4-7.3,7l-104-13c-3.4-0.4-5.8-4.3-5.2-8.6L1.3-26.9
			c0.6-4.3,3.8-7.4,7.3-7l104,13c3.4,0.4,5.8,4.3,5.2,8.6L97.6,139.4z"/>
		
			<linearGradient id="Path_161_1_" gradientUnits="userSpaceOnUse" x1="-912.3707" y1="467.2884" x2="-911.5137" y2="468.2364" gradientTransform="matrix(129.5418 45.8044 34.7322 -170.838 102227.3438 121361.3594)">
			<stop  offset="5.500000e-02" style="stop-color:#000000"/>
			<stop  offset="0.323" style="stop-color:#070707"/>
			<stop  offset="0.727" style="stop-color:#1C1C1C"/>
			<stop  offset="1" style="stop-color:#2E2E2E"/>
		</linearGradient>
		<path id="Path_161" class="st15" d="M96.4,139.6c-0.6,4.2-3.8,7.3-7.1,6.9l-101.9-12.8c-3.4-0.4-5.7-4.2-5.1-8.4L2-23.4
			c0.6-4.2,3.8-7.3,7.1-6.9l101.9,12.8c3.4,0.4,5.7,4.2,5.1,8.4L96.4,139.6z"/>
		<g id="Group_197" transform="translate(26.353 11.924)">
			
				<linearGradient id="Path_162_1_" gradientUnits="userSpaceOnUse" x1="-958.7556" y1="496.8171" x2="-953.2407" y2="512.0521" gradientTransform="matrix(10.295 2.4912 2.7602 -9.2913 8593.7725 6709.3833)">
				<stop  offset="0" style="stop-color:#FDEDC9"/>
				<stop  offset="2.200000e-02" style="stop-color:#F2DDB2"/>
				<stop  offset="6.800000e-02" style="stop-color:#D6B678"/>
				<stop  offset="7.900000e-02" style="stop-color:#D0AD6A"/>
				<stop  offset="9.000000e-02" style="stop-color:#C7A261"/>
				<stop  offset="0.137" style="stop-color:#A47B3E"/>
				<stop  offset="0.183" style="stop-color:#895C23"/>
				<stop  offset="0.228" style="stop-color:#75460F"/>
				<stop  offset="0.271" style="stop-color:#693903"/>
				<stop  offset="0.31" style="stop-color:#663500"/>
				<stop  offset="0.35" style="stop-color:#6A3A04"/>
				<stop  offset="0.402" style="stop-color:#794A13"/>
				<stop  offset="0.46" style="stop-color:#90652A"/>
				<stop  offset="0.522" style="stop-color:#B0894A"/>
				<stop  offset="0.573" style="stop-color:#D0AD6A"/>
				<stop  offset="0.667" style="stop-color:#ECD5A6"/>
				<stop  offset="0.727" style="stop-color:#FDEDC9"/>
				<stop  offset="0.759" style="stop-color:#F2DDB2"/>
				<stop  offset="0.825" style="stop-color:#D6B678"/>
				<stop  offset="0.841" style="stop-color:#D0AD6A"/>
				<stop  offset="0.95" style="stop-color:#84571E"/>
				<stop  offset="1" style="stop-color:#663500"/>
			</linearGradient>
			<path id="Path_162" class="st16" d="M-13.9-19.2c-1.2-0.3-2.4,0.3-2.9,1.4c0-1.1-1.1-2-2.4-2.1c-1.5-0.2-2.8,0.9-3,2.4
				c0,0,0,0.1,0,0.1c-0.2,1.6,0.9,2.9,2.2,4.3c0.8,0.9,1.6,1.8,2.3,2.8c0.9-0.8,1.9-1.5,2.9-2.1c1.6-1,3-2.1,3.2-3.7
				c0.3-1.4-0.7-2.8-2.1-3.1C-13.8-19.2-13.8-19.2-13.9-19.2z"/>
			
				<linearGradient id="Path_163_1_" gradientUnits="userSpaceOnUse" x1="-956.4324" y1="490.2734" x2="-951.1924" y2="503.4064" gradientTransform="matrix(10.8366 2.8941 2.9055 -10.7941 9037.46 7754.2368)">
				<stop  offset="0" style="stop-color:#FDEDC9"/>
				<stop  offset="2.200000e-02" style="stop-color:#F2DDB2"/>
				<stop  offset="6.800000e-02" style="stop-color:#D6B678"/>
				<stop  offset="7.900000e-02" style="stop-color:#D0AD6A"/>
				<stop  offset="9.000000e-02" style="stop-color:#C7A261"/>
				<stop  offset="0.137" style="stop-color:#A47B3E"/>
				<stop  offset="0.183" style="stop-color:#895C23"/>
				<stop  offset="0.228" style="stop-color:#75460F"/>
				<stop  offset="0.271" style="stop-color:#693903"/>
				<stop  offset="0.31" style="stop-color:#663500"/>
				<stop  offset="0.35" style="stop-color:#6A3A04"/>
				<stop  offset="0.402" style="stop-color:#794A13"/>
				<stop  offset="0.46" style="stop-color:#90652A"/>
				<stop  offset="0.522" style="stop-color:#B0894A"/>
				<stop  offset="0.573" style="stop-color:#D0AD6A"/>
				<stop  offset="0.667" style="stop-color:#ECD5A6"/>
				<stop  offset="0.727" style="stop-color:#FDEDC9"/>
				<stop  offset="0.759" style="stop-color:#F2DDB2"/>
				<stop  offset="0.825" style="stop-color:#D6B678"/>
				<stop  offset="0.841" style="stop-color:#D0AD6A"/>
				<stop  offset="0.95" style="stop-color:#84571E"/>
				<stop  offset="1" style="stop-color:#663500"/>
			</linearGradient>
			<path id="Path_163" class="st17" d="M-11.5-24.9l-2.5-9l-0.3,0l-4.8,7.9c-0.3,0.5-0.6,1-1.1,1.4c-0.3,0.1-0.6,0.2-0.9,0.2l0,0.3
				l3.3,0.4l0-0.3c-0.3,0-0.7-0.2-1-0.4c-0.1-0.1-0.2-0.3-0.2-0.4c0.1-0.3,0.2-0.6,0.4-0.9l0.9-1.5l4.1,0.5l0.4,1.5
				c0.1,0.3,0.2,0.7,0.2,1.1c0,0.2-0.1,0.3-0.3,0.4c-0.3,0.1-0.6,0.1-0.9,0.1l0,0.3l4.2,0.5l0-0.3c-0.4,0-0.7-0.2-1-0.5
				C-11.2-23.9-11.4-24.4-11.5-24.9z M-17.3-27.7l2.4-3.9l1.2,4.4L-17.3-27.7z"/>
			
				<linearGradient id="Path_164_1_" gradientUnits="userSpaceOnUse" x1="-957.8886" y1="505.5071" x2="-952.3726" y2="520.7411" gradientTransform="matrix(10.295 2.4906 2.7602 -9.2894 8673.2656 6830.543)">
				<stop  offset="0" style="stop-color:#FDEDC9"/>
				<stop  offset="2.200000e-02" style="stop-color:#F2DDB2"/>
				<stop  offset="6.800000e-02" style="stop-color:#D6B678"/>
				<stop  offset="7.900000e-02" style="stop-color:#D0AD6A"/>
				<stop  offset="9.000000e-02" style="stop-color:#C7A261"/>
				<stop  offset="0.137" style="stop-color:#A47B3E"/>
				<stop  offset="0.183" style="stop-color:#895C23"/>
				<stop  offset="0.228" style="stop-color:#75460F"/>
				<stop  offset="0.271" style="stop-color:#693903"/>
				<stop  offset="0.31" style="stop-color:#663500"/>
				<stop  offset="0.35" style="stop-color:#6A3A04"/>
				<stop  offset="0.402" style="stop-color:#794A13"/>
				<stop  offset="0.46" style="stop-color:#90652A"/>
				<stop  offset="0.522" style="stop-color:#B0894A"/>
				<stop  offset="0.573" style="stop-color:#D0AD6A"/>
				<stop  offset="0.667" style="stop-color:#ECD5A6"/>
				<stop  offset="0.727" style="stop-color:#FDEDC9"/>
				<stop  offset="0.759" style="stop-color:#F2DDB2"/>
				<stop  offset="0.825" style="stop-color:#D6B678"/>
				<stop  offset="0.841" style="stop-color:#D0AD6A"/>
				<stop  offset="0.95" style="stop-color:#84571E"/>
				<stop  offset="1" style="stop-color:#663500"/>
			</linearGradient>
			<path id="Path_164" class="st18" d="M59.6,111.6c1.2,0.3,2.4-0.3,2.9-1.4c0,1.1,1.1,2,2.4,2.1c1.5,0.2,2.8-0.9,3-2.4
				c0,0,0-0.1,0-0.1c0.2-1.6-0.9-2.9-2.2-4.3c-0.8-0.9-1.6-1.8-2.3-2.8c-0.9,0.8-1.9,1.5-2.9,2.1c-1.6,1-3,2.1-3.2,3.7
				c-0.3,1.4,0.7,2.8,2.1,3.1C59.5,111.5,59.5,111.6,59.6,111.6z"/>
			
				<linearGradient id="Path_165_1_" gradientUnits="userSpaceOnUse" x1="-955.5754" y1="500.2363" x2="-950.3365" y2="513.3683" gradientTransform="matrix(10.8356 2.8935 2.9052 -10.7922 9113.5244 7901.9453)">
				<stop  offset="0" style="stop-color:#FDEDC9"/>
				<stop  offset="2.200000e-02" style="stop-color:#F2DDB2"/>
				<stop  offset="6.800000e-02" style="stop-color:#D6B678"/>
				<stop  offset="7.900000e-02" style="stop-color:#D0AD6A"/>
				<stop  offset="9.000000e-02" style="stop-color:#C7A261"/>
				<stop  offset="0.137" style="stop-color:#A47B3E"/>
				<stop  offset="0.183" style="stop-color:#895C23"/>
				<stop  offset="0.228" style="stop-color:#75460F"/>
				<stop  offset="0.271" style="stop-color:#693903"/>
				<stop  offset="0.31" style="stop-color:#663500"/>
				<stop  offset="0.35" style="stop-color:#6A3A04"/>
				<stop  offset="0.402" style="stop-color:#794A13"/>
				<stop  offset="0.46" style="stop-color:#90652A"/>
				<stop  offset="0.522" style="stop-color:#B0894A"/>
				<stop  offset="0.573" style="stop-color:#D0AD6A"/>
				<stop  offset="0.667" style="stop-color:#ECD5A6"/>
				<stop  offset="0.727" style="stop-color:#FDEDC9"/>
				<stop  offset="0.759" style="stop-color:#F2DDB2"/>
				<stop  offset="0.825" style="stop-color:#D6B678"/>
				<stop  offset="0.841" style="stop-color:#D0AD6A"/>
				<stop  offset="0.95" style="stop-color:#84571E"/>
				<stop  offset="1" style="stop-color:#663500"/>
			</linearGradient>
			<path id="Path_165" class="st19" d="M63.5,116.4c0.3,0,0.7,0.2,1,0.4c0.1,0.1,0.2,0.3,0.2,0.4c-0.1,0.3-0.2,0.6-0.4,0.9l-0.9,1.5
				l-4.1-0.5l-0.4-1.5c-0.1-0.3-0.2-0.7-0.2-1.1c0-0.2,0.1-0.3,0.3-0.4c0.3-0.1,0.6-0.1,0.9-0.1l0-0.3l-4.2-0.5l0,0.3
				c0.4,0,0.7,0.2,1,0.5c0.3,0.4,0.5,0.9,0.6,1.4l2.5,9l0.3,0l4.8-7.9c0.3-0.5,0.6-1,1.1-1.4c0.3-0.1,0.6-0.2,0.9-0.2l0-0.3
				l-3.3-0.4L63.5,116.4z M60.7,124l-1.2-4.4l3.6,0.5L60.7,124z"/>
			
				<linearGradient id="Path_166_1_" gradientUnits="userSpaceOnUse" x1="-942.4854" y1="462.9504" x2="-941.3084" y2="466.2014" gradientTransform="matrix(48.1738 11.6705 12.9162 -43.5279 39572.3477 30876.5938)">
				<stop  offset="0" style="stop-color:#FDEDC9"/>
				<stop  offset="2.200000e-02" style="stop-color:#F2DDB2"/>
				<stop  offset="6.800000e-02" style="stop-color:#D6B678"/>
				<stop  offset="7.900000e-02" style="stop-color:#D0AD6A"/>
				<stop  offset="9.000000e-02" style="stop-color:#C7A261"/>
				<stop  offset="0.137" style="stop-color:#A47B3E"/>
				<stop  offset="0.183" style="stop-color:#895C23"/>
				<stop  offset="0.228" style="stop-color:#75460F"/>
				<stop  offset="0.271" style="stop-color:#693903"/>
				<stop  offset="0.31" style="stop-color:#663500"/>
				<stop  offset="0.35" style="stop-color:#6A3A04"/>
				<stop  offset="0.402" style="stop-color:#794A13"/>
				<stop  offset="0.46" style="stop-color:#90652A"/>
				<stop  offset="0.522" style="stop-color:#B0894A"/>
				<stop  offset="0.573" style="stop-color:#D0AD6A"/>
				<stop  offset="0.667" style="stop-color:#ECD5A6"/>
				<stop  offset="0.727" style="stop-color:#FDEDC9"/>
				<stop  offset="0.759" style="stop-color:#F2DDB2"/>
				<stop  offset="0.825" style="stop-color:#D6B678"/>
				<stop  offset="0.841" style="stop-color:#D0AD6A"/>
				<stop  offset="0.95" style="stop-color:#84571E"/>
				<stop  offset="1" style="stop-color:#663500"/>
			</linearGradient>
			<path id="Path_166" class="st20" d="M38.2,26c-6-0.9-12.2,1.5-13.6,6.6c0-5.3-5.4-9.2-11.4-9.8c-6.5-0.6-13,3.4-14.1,11.6
				c-1,7.5,4.1,13.7,10.1,20.3c3.8,4.1,7.4,8.5,10.6,13c4.4-3.6,8.9-6.9,13.7-10c7.5-4.9,14.1-9.7,15.1-17.2
				C49.9,32.5,44.7,27,38.2,26z"/>
		</g>
	</g>
	<g id="Group_201" transform="matrix(0.966, -0.259, 0.259, 0.966, 1081.324, 309.249)">
		
			<linearGradient id="Path_167_1_" gradientUnits="userSpaceOnUse" x1="-1227.7173" y1="441.0619" x2="-1226.5773" y2="441.8249" gradientTransform="matrix(157.4595 144.6389 42.2174 -539.4642 174701.1094 415880.5938)">
			<stop  offset="0" style="stop-color:#FDEDC9"/>
			<stop  offset="2.200000e-02" style="stop-color:#F2DDB2"/>
			<stop  offset="6.800000e-02" style="stop-color:#D6B678"/>
			<stop  offset="7.900000e-02" style="stop-color:#D0AD6A"/>
			<stop  offset="9.000000e-02" style="stop-color:#C7A261"/>
			<stop  offset="0.137" style="stop-color:#A47B3E"/>
			<stop  offset="0.183" style="stop-color:#895C23"/>
			<stop  offset="0.228" style="stop-color:#75460F"/>
			<stop  offset="0.271" style="stop-color:#693903"/>
			<stop  offset="0.31" style="stop-color:#663500"/>
			<stop  offset="0.35" style="stop-color:#6A3A04"/>
			<stop  offset="0.402" style="stop-color:#794A13"/>
			<stop  offset="0.46" style="stop-color:#90652A"/>
			<stop  offset="0.522" style="stop-color:#B0894A"/>
			<stop  offset="0.573" style="stop-color:#D0AD6A"/>
			<stop  offset="0.667" style="stop-color:#ECD5A6"/>
			<stop  offset="0.727" style="stop-color:#FDEDC9"/>
			<stop  offset="0.759" style="stop-color:#F2DDB2"/>
			<stop  offset="0.825" style="stop-color:#D6B678"/>
			<stop  offset="0.841" style="stop-color:#D0AD6A"/>
			<stop  offset="0.95" style="stop-color:#84571E"/>
			<stop  offset="1" style="stop-color:#663500"/>
		</linearGradient>
		<path id="Path_167" class="st21" d="M89.5,507.9c-1.4,11.9-5.3,19-8.6,15.8l-99.2-94.8c-3.3-3.1-4.8-15.3-3.3-27.2L29.1-17.4
			c1.4-11.9,5.3-19,8.6-15.8l99.2,94.8c3.3,3.1,4.8,15.3,3.3,27.2L89.5,507.9z"/>
		
			<linearGradient id="Path_168_1_" gradientUnits="userSpaceOnUse" x1="-1225.0376" y1="447.0184" x2="-1224.3326" y2="447.9094" gradientTransform="matrix(154.3746 143.6589 41.3903 -535.8088 171282.9531 413067.2813)">
			<stop  offset="5.500000e-02" style="stop-color:#000000"/>
			<stop  offset="0.323" style="stop-color:#070707"/>
			<stop  offset="0.727" style="stop-color:#1C1C1C"/>
			<stop  offset="1" style="stop-color:#2E2E2E"/>
		</linearGradient>
		<path id="Path_168" class="st22" d="M88.2,507.9c-1.4,11.8-5.2,18.9-8.4,15.7l-97.3-94.2c-3.2-3.1-4.7-15.2-3.3-27L29.1-13.8
			c1.4-11.8,5.2-18.9,8.4-15.7l97.3,94.2c3.2,3.1,4.7,15.2,3.3,27L88.2,507.9z"/>
		<g id="Group_200" transform="translate(50.237 13.653)">
			
				<linearGradient id="Path_169_1_" gradientUnits="userSpaceOnUse" x1="-1275.061" y1="451.522" x2="-1273.391" y2="454.232" gradientTransform="matrix(45.1985 13.101 12.1184 -48.8632 52717.3906 38040.8711)">
				<stop  offset="0" style="stop-color:#FDEDC9"/>
				<stop  offset="2.200000e-02" style="stop-color:#F2DDB2"/>
				<stop  offset="6.800000e-02" style="stop-color:#D6B678"/>
				<stop  offset="7.900000e-02" style="stop-color:#D0AD6A"/>
				<stop  offset="9.000000e-02" style="stop-color:#C7A261"/>
				<stop  offset="0.137" style="stop-color:#A47B3E"/>
				<stop  offset="0.183" style="stop-color:#895C23"/>
				<stop  offset="0.228" style="stop-color:#75460F"/>
				<stop  offset="0.271" style="stop-color:#693903"/>
				<stop  offset="0.31" style="stop-color:#663500"/>
				<stop  offset="0.35" style="stop-color:#6A3A04"/>
				<stop  offset="0.402" style="stop-color:#794A13"/>
				<stop  offset="0.46" style="stop-color:#90652A"/>
				<stop  offset="0.522" style="stop-color:#B0894A"/>
				<stop  offset="0.573" style="stop-color:#D0AD6A"/>
				<stop  offset="0.667" style="stop-color:#ECD5A6"/>
				<stop  offset="0.727" style="stop-color:#FDEDC9"/>
				<stop  offset="0.759" style="stop-color:#F2DDB2"/>
				<stop  offset="0.825" style="stop-color:#D6B678"/>
				<stop  offset="0.841" style="stop-color:#D0AD6A"/>
				<stop  offset="0.95" style="stop-color:#84571E"/>
				<stop  offset="1" style="stop-color:#663500"/>
			</linearGradient>
			<path id="Path_169" class="st23" d="M23.2,227.2c-5.8-10.4-6.2-15.5-6.2-15.5h0c0,0-3.5,3.8-14.7,8.6c-8.9,3.8-16.1,7-18.6,13.9
				c-2.1,6,1.2,12.6,7.2,14.7c0.1,0,0.2,0.1,0.3,0.1c4.4,1.4,9.1,1,12.2-1.5c-2.2,4.2-5.5,10.3-9,11.3l10.8,3.6
				c-2.1-2.8-0.9-9.7,0-14.3c0.8,3.9,4.3,7,8.7,8.5c6.2,2.1,12.9-1.1,15.2-7.3C31.6,242.3,27.9,235.5,23.2,227.2z"/>
			
				<linearGradient id="Path_170_1_" gradientUnits="userSpaceOnUse" x1="-1271.3528" y1="539.072" x2="-1263.2249" y2="552.2579" gradientTransform="matrix(9.2889 2.6936 2.4905 -10.0464 10975.9795 7901.7871)">
				<stop  offset="0" style="stop-color:#FDEDC9"/>
				<stop  offset="2.200000e-02" style="stop-color:#F2DDB2"/>
				<stop  offset="6.800000e-02" style="stop-color:#D6B678"/>
				<stop  offset="7.900000e-02" style="stop-color:#D0AD6A"/>
				<stop  offset="9.000000e-02" style="stop-color:#C7A261"/>
				<stop  offset="0.137" style="stop-color:#A47B3E"/>
				<stop  offset="0.183" style="stop-color:#895C23"/>
				<stop  offset="0.228" style="stop-color:#75460F"/>
				<stop  offset="0.271" style="stop-color:#693903"/>
				<stop  offset="0.31" style="stop-color:#663500"/>
				<stop  offset="0.35" style="stop-color:#6A3A04"/>
				<stop  offset="0.402" style="stop-color:#794A13"/>
				<stop  offset="0.46" style="stop-color:#90652A"/>
				<stop  offset="0.522" style="stop-color:#B0894A"/>
				<stop  offset="0.573" style="stop-color:#D0AD6A"/>
				<stop  offset="0.667" style="stop-color:#ECD5A6"/>
				<stop  offset="0.727" style="stop-color:#FDEDC9"/>
				<stop  offset="0.759" style="stop-color:#F2DDB2"/>
				<stop  offset="0.825" style="stop-color:#D6B678"/>
				<stop  offset="0.841" style="stop-color:#D0AD6A"/>
				<stop  offset="0.95" style="stop-color:#84571E"/>
				<stop  offset="1" style="stop-color:#663500"/>
			</linearGradient>
			<path id="Path_170" class="st24" d="M-14-17.6c-0.6-1-1.1-2-1.3-3.2l0,0c-0.9,0.8-1.9,1.4-3,1.8c-1.8,0.8-3.3,1.4-3.8,2.9
				c-0.4,1.2,0.2,2.6,1.5,3c0,0,0,0,0.1,0c0.8,0.3,1.8,0.2,2.5-0.3c-0.4,0.9-1.1,2.1-1.9,2.3l2.2,0.7c-0.4-0.6-0.2-2,0-2.9
				c0.3,0.9,0.9,1.5,1.8,1.7c1.3,0.4,2.7-0.2,3.1-1.5C-12.3-14.5-13-15.8-14-17.6z"/>
			
				<linearGradient id="Path_171_1_" gradientUnits="userSpaceOnUse" x1="-1271.7166" y1="525.0477" x2="-1264.4095" y2="536.7468" gradientTransform="matrix(10.4009 3.0531 2.7887 -11.3872 12271.6533 8921.6191)">
				<stop  offset="0" style="stop-color:#FDEDC9"/>
				<stop  offset="2.200000e-02" style="stop-color:#F2DDB2"/>
				<stop  offset="6.800000e-02" style="stop-color:#D6B678"/>
				<stop  offset="7.900000e-02" style="stop-color:#D0AD6A"/>
				<stop  offset="9.000000e-02" style="stop-color:#C7A261"/>
				<stop  offset="0.137" style="stop-color:#A47B3E"/>
				<stop  offset="0.183" style="stop-color:#895C23"/>
				<stop  offset="0.228" style="stop-color:#75460F"/>
				<stop  offset="0.271" style="stop-color:#693903"/>
				<stop  offset="0.31" style="stop-color:#663500"/>
				<stop  offset="0.35" style="stop-color:#6A3A04"/>
				<stop  offset="0.402" style="stop-color:#794A13"/>
				<stop  offset="0.46" style="stop-color:#90652A"/>
				<stop  offset="0.522" style="stop-color:#B0894A"/>
				<stop  offset="0.573" style="stop-color:#D0AD6A"/>
				<stop  offset="0.667" style="stop-color:#ECD5A6"/>
				<stop  offset="0.727" style="stop-color:#FDEDC9"/>
				<stop  offset="0.759" style="stop-color:#F2DDB2"/>
				<stop  offset="0.825" style="stop-color:#D6B678"/>
				<stop  offset="0.841" style="stop-color:#D0AD6A"/>
				<stop  offset="0.95" style="stop-color:#84571E"/>
				<stop  offset="1" style="stop-color:#663500"/>
			</linearGradient>
			<path id="Path_171" class="st25" d="M-9.4-24.6l-0.7-9.3l-0.3-0.1l-6.4,6.9c-0.4,0.5-0.8,0.8-1.3,1.1c-0.3,0.1-0.6,0.1-0.9,0
				l-0.1,0.3l3.2,1l0.1-0.3c-0.3-0.1-0.6-0.3-0.9-0.5c-0.1-0.1-0.1-0.3-0.1-0.5c0.1-0.3,0.3-0.5,0.6-0.8L-15-28l3.9,1.3l0.1,1.6
				c0,0.4,0,0.7-0.1,1.1c-0.1,0.2-0.2,0.3-0.4,0.3c-0.3,0.1-0.6,0-0.9-0.1l-0.1,0.3l4,1.3l0.1-0.3c-0.3-0.1-0.6-0.3-0.8-0.6
				C-9.3-23.5-9.4-24.1-9.4-24.6z M-14.5-28.4l3.1-3.4l0.3,4.5L-14.5-28.4z"/>
			
				<linearGradient id="Path_172_1_" gradientUnits="userSpaceOnUse" x1="-1268.8357" y1="547.8109" x2="-1260.7067" y2="560.9969" gradientTransform="matrix(9.2893 2.6923 2.4906 -10.0416 11028.1299 8395.9424)">
				<stop  offset="0" style="stop-color:#FDEDC9"/>
				<stop  offset="2.200000e-02" style="stop-color:#F2DDB2"/>
				<stop  offset="6.800000e-02" style="stop-color:#D6B678"/>
				<stop  offset="7.900000e-02" style="stop-color:#D0AD6A"/>
				<stop  offset="9.000000e-02" style="stop-color:#C7A261"/>
				<stop  offset="0.137" style="stop-color:#A47B3E"/>
				<stop  offset="0.183" style="stop-color:#895C23"/>
				<stop  offset="0.228" style="stop-color:#75460F"/>
				<stop  offset="0.271" style="stop-color:#693903"/>
				<stop  offset="0.31" style="stop-color:#663500"/>
				<stop  offset="0.35" style="stop-color:#6A3A04"/>
				<stop  offset="0.402" style="stop-color:#794A13"/>
				<stop  offset="0.46" style="stop-color:#90652A"/>
				<stop  offset="0.522" style="stop-color:#B0894A"/>
				<stop  offset="0.573" style="stop-color:#D0AD6A"/>
				<stop  offset="0.667" style="stop-color:#ECD5A6"/>
				<stop  offset="0.727" style="stop-color:#FDEDC9"/>
				<stop  offset="0.759" style="stop-color:#F2DDB2"/>
				<stop  offset="0.825" style="stop-color:#D6B678"/>
				<stop  offset="0.841" style="stop-color:#D0AD6A"/>
				<stop  offset="0.95" style="stop-color:#84571E"/>
				<stop  offset="1" style="stop-color:#663500"/>
			</linearGradient>
			<path id="Path_172" class="st26" d="M30.8,484.4c0.6,1,1.1,2,1.3,3.2l0,0c0.9-0.8,1.9-1.4,3-1.8c1.8-0.8,3.3-1.4,3.8-2.9
				c0.4-1.2-0.2-2.6-1.5-3c0,0,0,0-0.1,0c-0.8-0.3-1.8-0.2-2.5,0.3c0.4-0.9,1.1-2.1,1.9-2.3l-2.2-0.7c0.4,0.6,0.2,2,0,2.9
				c-0.3-0.9-0.9-1.5-1.8-1.7c-1.3-0.4-2.7,0.2-3.1,1.5C29.1,481.3,29.9,482.6,30.8,484.4z"/>
			
				<linearGradient id="Path_173_1_" gradientUnits="userSpaceOnUse" x1="-1269.0405" y1="535.0628" x2="-1261.7325" y2="546.7639" gradientTransform="matrix(10.399 3.0526 2.7881 -11.3853 12313.5811 9443.0186)">
				<stop  offset="0" style="stop-color:#FDEDC9"/>
				<stop  offset="2.200000e-02" style="stop-color:#F2DDB2"/>
				<stop  offset="6.800000e-02" style="stop-color:#D6B678"/>
				<stop  offset="7.900000e-02" style="stop-color:#D0AD6A"/>
				<stop  offset="9.000000e-02" style="stop-color:#C7A261"/>
				<stop  offset="0.137" style="stop-color:#A47B3E"/>
				<stop  offset="0.183" style="stop-color:#895C23"/>
				<stop  offset="0.228" style="stop-color:#75460F"/>
				<stop  offset="0.271" style="stop-color:#693903"/>
				<stop  offset="0.31" style="stop-color:#663500"/>
				<stop  offset="0.35" style="stop-color:#6A3A04"/>
				<stop  offset="0.402" style="stop-color:#794A13"/>
				<stop  offset="0.46" style="stop-color:#90652A"/>
				<stop  offset="0.522" style="stop-color:#B0894A"/>
				<stop  offset="0.573" style="stop-color:#D0AD6A"/>
				<stop  offset="0.667" style="stop-color:#ECD5A6"/>
				<stop  offset="0.727" style="stop-color:#FDEDC9"/>
				<stop  offset="0.759" style="stop-color:#F2DDB2"/>
				<stop  offset="0.825" style="stop-color:#D6B678"/>
				<stop  offset="0.841" style="stop-color:#D0AD6A"/>
				<stop  offset="0.95" style="stop-color:#84571E"/>
				<stop  offset="1" style="stop-color:#663500"/>
			</linearGradient>
			<path id="Path_173" class="st27" d="M32.7,491.4l-0.1,0.3c0.3,0.1,0.6,0.3,0.9,0.5c0.1,0.1,0.1,0.3,0.1,0.5
				c-0.1,0.3-0.3,0.5-0.6,0.8l-1.2,1.3l-3.9-1.3l-0.1-1.6c0-0.4,0-0.7,0.1-1.1c0.1-0.2,0.2-0.3,0.3-0.3c0.3-0.1,0.6,0,0.9,0.1
				l0.1-0.3l-4-1.3l-0.1,0.3c0.3,0.1,0.6,0.3,0.8,0.6c0.2,0.5,0.3,1,0.3,1.5l0.7,9.3l0.3,0.1l6.4-6.9c0.4-0.5,0.8-0.8,1.3-1.1
				c0.3-0.1,0.6-0.1,0.9,0l0.1-0.3L32.7,491.4z M28.3,498.6l-0.3-4.5l3.5,1.1L28.3,498.6z"/>
		</g>
	</g>
</g>
</svg>
