<svg id="Layer_1" data-name="Layer 1" xmlns="http://www.w3.org/2000/svg" viewBox="0 0 370.25 345.12"><defs><style>.cls-1{fill:#a6d4e2;}.cls-2,.cls-4{fill:none;}.cls-2{stroke:#a6d4e2;stroke-miterlimit:10;stroke-width:0.74px;}.cls-3{fill:#2f93ba;}.cls-4{stroke:#2f93ba;stroke-miterlimit:10;stroke-width:0.74px;}</style></defs><g id="Group_274" data-name="Group 274"><g id="Group_269" data-name="Group 269"><rect id="Rectangle_104" data-name="Rectangle 104" class="cls-1" x="0.37" y="2.67" width="205.87" height="309.44" rx="16.04"/><rect id="Rectangle_105" data-name="Rectangle 105" class="cls-2" x="0.37" y="2.67" width="205.87" height="309.44" rx="16.04"/><rect id="Rectangle_106" data-name="Rectangle 106" class="cls-3" x="0.37" y="2.67" width="205.87" height="309.44" rx="16.04"/></g><g id="Group_273" data-name="Group 273"><g id="Group_270" data-name="Group 270"><rect id="Rectangle_107" data-name="Rectangle 107" class="cls-3" x="80" y="69.6" width="309.53" height="205.93" rx="16.04" transform="translate(8.63 356.28) rotate(-75.41)"/><rect id="Rectangle_108" data-name="Rectangle 108" class="cls-4" x="80" y="69.6" width="309.53" height="205.93" rx="16.04" transform="translate(8.63 356.28) rotate(-75.41)"/><rect id="Rectangle_109" data-name="Rectangle 109" class="cls-1" x="80" y="69.6" width="309.53" height="205.93" rx="16.04" transform="translate(8.63 356.28) rotate(-75.41)"/></g><path id="Path_332" data-name="Path 332" class="cls-3" d="M212.56,160.34c2.32-8.19,11.12-11.49,11.12-11.49l7.34-3.54,5.87-2.94,5.5-3.42,2.44-1.83s.49,1.71.61,2.2,2.32,6.6,2.32,6.6l3.67,7.33a33.35,33.35,0,0,1,3.91,7.09c1.22,3.42,2,5.13,2.08,7a14.45,14.45,0,0,1,0,4.64,22.56,22.56,0,0,1-1.46,4.16l-1.47,2.08-2.57,2.08L249,182h-3.3l-3.3-.54-2.69-1L237,178.44l-2.45-2.94-.73-2.57a21.32,21.32,0,0,0-1,4.16c0,1.22-.24,3.51-.12,4.93s.49,3.63.49,3.63l.61,1.46-10.51-3.3a15.2,15.2,0,0,0,3.42-3.05c.86-1.35,3.42-5.14,3.42-5.14l1.59-3.05a7.82,7.82,0,0,1-4,2,28.56,28.56,0,0,1-6,0,27.7,27.7,0,0,1-4.89-2.32,10.13,10.13,0,0,1-3.55-4.64,19.63,19.63,0,0,1-.73-3.55Z"/><g id="Group_271" data-name="Group 271"><path id="Path_333" data-name="Path 333" d="M184.71,40.37a.89.89,0,0,1,.43,0l.36.09.38.09a7.38,7.38,0,0,0,1.48.17,2.46,2.46,0,0,0,1.2-.71,34.85,34.85,0,0,0,2.93-3.71c.55-.78.89-1.25,1-1.41.41-.51.82-1.05,1.23-1.63l2.47-3.43c.39-.54,1.3-1.76,2.74-3.68.37-.48.82-1.14,1.37-2l.48.09.54.15a20,20,0,0,1,.5,3c.06.55.18,1.38.34,2.49l.84,6.58.43,3.57c.19,2,.34,3.25.44,3.73a1.28,1.28,0,0,0,.91,1.31l.67.36a7.92,7.92,0,0,1,.92.58.62.62,0,0,1,0,.27.75.75,0,0,1-.1.2l-.71-.17-2.83-.78-1.56-.44-1.91-.48a2.4,2.4,0,0,1-.38-.12l-.34-.1-.35-.09a1.22,1.22,0,0,1-.29-.17,1.16,1.16,0,0,1,.18-.37.93.93,0,0,1,.37,0l1.68.33a3.53,3.53,0,0,0,1,.09,1.46,1.46,0,0,0,.2-.37,5.88,5.88,0,0,0-.06-1.45c-.06-.54-.11-1-.13-1.51s-.22-2.06-.56-4.74a8,8,0,0,0-1.1-.4l-3.38-.85-1-.27a9.42,9.42,0,0,0-1.2-.23c-.15.17-.29.36-.43.55l-2.42,3.62a20.25,20.25,0,0,0-1.54,2.28,1.23,1.23,0,0,0,0,.47,6.4,6.4,0,0,0,.84.39l2.09.74a.36.36,0,0,1,.12.27.84.84,0,0,1-.11.21l-1.09-.27q-1.26-.33-2.91-.84c-.51-.15-.87-.26-1.09-.31s-.6-.15-1.16-.27l-.77-.18c-.26-.06-.58-.16-1-.29l0-.09A.94.94,0,0,1,184.71,40.37Zm9.78-6.74c1.11.35,2.38.71,3.82,1.09.82.21,1.54.38,2.17.49a8.77,8.77,0,0,0-.08-1.15c-.25-1.86-.38-2.89-.41-3.08l-.56-3.72-.08-.3c-.1.09-.46.53-1.09,1.31-1.06,1.33-1.85,2.38-2.37,3.14-.23.34-.47.68-.71,1a6.33,6.33,0,0,0-.48.71,3.13,3.13,0,0,1-.29.42Z"/></g><g id="Group_272" data-name="Group 272"><path id="Path_334" data-name="Path 334" d="M294.65,305.19a.6.6,0,0,1-.35,0l-.3-.06-.32-.05a5.07,5.07,0,0,0-1.23-.05,2.13,2.13,0,0,0-1,.77,34.54,34.54,0,0,0-2.37,3.73c-.44.78-.72,1.25-.83,1.41-.33.52-.66,1.06-1,1.64l-2,3.43c-.31.54-1.05,1.77-2.21,3.7-.29.48-.66,1.14-1.11,2l-.39,0-.45-.11a19.78,19.78,0,0,1-.47-2.77c-.06-.52-.17-1.29-.33-2.33l-.81-6.17-.42-3.34c-.2-1.89-.34-3.06-.43-3.51a2.62,2.62,0,0,0-.32-.9,2.13,2.13,0,0,0-.46-.27l-.56-.29a5.09,5.09,0,0,1-.78-.48.62.62,0,0,1,.08-.45l.59.1c.45.09,1.23.27,2.36.53l1.31.3,1.59.3.32.09.28.07.29.06a.72.72,0,0,1,.24.14,1,1,0,0,1-.14.37.82.82,0,0,1-.31,0l-1.4-.18a2.21,2.21,0,0,0-.85,0,1.44,1.44,0,0,0-.15.36,6.27,6.27,0,0,0,.07,1.37c.06.51.11,1,.14,1.42s.21,1.93.54,4.45a5.9,5.9,0,0,0,.93.29l2.82.55.82.19c.33.06.66.1,1,.13.17-.26.29-.44.35-.56l1.95-3.62a19.91,19.91,0,0,0,1.23-2.27,1.37,1.37,0,0,0,0-.45,6.14,6.14,0,0,0-.7-.3l-1.76-.54a.34.34,0,0,1-.09-.25.5.5,0,0,1,.08-.2c.39.07.7.12.91.17q1.05.21,2.43.57l.91.22,1,.17.65.1a8.16,8.16,0,0,1,.8.21l0,.08A.85.85,0,0,1,294.65,305.19Zm-8,7.13c-.93-.25-2-.5-3.19-.75-.68-.14-1.29-.24-1.82-.3,0,.37.05.73.1,1.09.23,1.74.36,2.71.39,2.89l.52,3.48.08.28c.08-.1.37-.54.88-1.33.86-1.34,1.5-2.39,1.91-3.15.19-.35.38-.68.58-1a6.1,6.1,0,0,0,.38-.71,3.3,3.3,0,0,1,.23-.41Z"/></g><path id="Path_335" data-name="Path 335" class="cls-3" d="M177.2,61.42c1.14-4,5.49-5.67,5.49-5.67L186.32,54l2.89-1.45,2.72-1.69,1.21-.91s.24.85.3,1.09,1.15,3.26,1.15,3.26l1.81,3.62a16.65,16.65,0,0,1,1.93,3.51,13.66,13.66,0,0,1,1,3.44,7.33,7.33,0,0,1,0,2.29,10.41,10.41,0,0,1-.73,2l-.72,1-1.27,1-1.45.87h-1.63l-1.63-.27-1.33-.48-1.33-1-1.2-1.45-.37-1.26a10.19,10.19,0,0,0-.48,2c0,.6-.12,1.73-.06,2.44s.24,1.78.24,1.78l.3.73L182.51,73a7.62,7.62,0,0,0,1.69-1.51c.43-.67,1.69-2.54,1.69-2.54l.79-1.51a3.88,3.88,0,0,1-2,1,14.64,14.64,0,0,1-3,0,13.65,13.65,0,0,1-2.41-1.15A4.9,4.9,0,0,1,177.56,65a8.78,8.78,0,0,1-.36-1.75Z"/><path id="Path_336" data-name="Path 336" class="cls-3" d="M303.05,283.7c-1,4.09-5.23,5.92-5.23,5.92l-3.54,1.92-2.83,1.57-2.64,1.82-1.16,1s-.28-.84-.35-1.07-1.3-3.21-1.3-3.21l-2-3.53a16.6,16.6,0,0,1-2.09-3.41,14.16,14.16,0,0,1-1.19-3.4,7.32,7.32,0,0,1-.1-2.29,10.84,10.84,0,0,1,.63-2.08l.68-1.06,1.22-1.08,1.41-.93,1.62-.08,1.65.19,1.34.42,1.38,1,1.27,1.39.42,1.25a10.36,10.36,0,0,0,.39-2.07c0-.6,0-1.74-.05-2.44s-.32-1.77-.32-1.77L292,271l5.26,1.39a7.83,7.83,0,0,0-1.62,1.58c-.39.69-1.57,2.61-1.57,2.61l-.72,1.55a3.9,3.9,0,0,1,1.95-1.06,14.65,14.65,0,0,1,3-.13,13.61,13.61,0,0,1,2.46,1,5,5,0,0,1,1.85,2.21,9.68,9.68,0,0,1,.45,1.74Z"/></g><path id="Path_337" data-name="Path 337" class="cls-1" d="M103.53,76,123.6,51.47,103.88,26.36,84.06,51Z"/><path id="Path_338" data-name="Path 338" class="cls-1" d="M103.17,92c7.33-.21,10.35,6.72,10.35,6.72s1.87,4.44.73,7.5-1.22,3.79-2.61,5.33l-1.38,1.55s2.65-2.28,4.6-2.44,4-.61,5.54,0a14,14,0,0,1,4.93,2.77c1.1,1.18,3.38,3.87,3.51,6.88s-.13,4.53-1.27,6.56-1.79,3.14-3.74,4.28-4.24,2.28-6.81,1.92-5.13-1.19-6.44-2.41-3.34-3.34-3.79-5.46a28.87,28.87,0,0,1-.53-4l-1.46,1s1.18,10.06,2.44,13.77a29.51,29.51,0,0,0,2.61,5.82s-10,.21-10,.33,2-3.38,2.73-11.53l.69-8.15a16.34,16.34,0,0,0-1.75-.94,9.22,9.22,0,0,1-.57,5.06c-1.06,2.36-1.63,4-3.92,5.46s-4.88,2.73-8.14,2.08-5.46-1.63-7.21-4.08-3-5.78-2.65-7.9,1.59-6,3.22-7.21,3.58-2.93,5.94-3.1,4.36-.36,6.12.62S97,113.91,97,113.91s-3.79-3.26-4.48-6.52-1-6.44.33-8.72,2.65-4.2,4.48-5,2.85-1.38,4.2-1.46A11.27,11.27,0,0,0,103.17,92Z"/><path id="Path_339" data-name="Path 339" class="cls-1" d="M79.94,170.82c1.91-8.46,7.3-10.37,8.11-10.49s3.21-1.65,6.91-.66,5.52,1.62,7,3.45a12.62,12.62,0,0,1,2.18,3.95,6.29,6.29,0,0,1,1.22-3.33c1.17-1.5,4.28-4.29,7.62-4.55s7.57-.1,9.76,1.78,3.41,2.86,4.25,5.61,1.67,3.87.8,7.88l-.86,4s-.63,2.33-4.25,6.11-17.7,17.24-17.79,18.25-3.18-5.61-8.81-8.45l-4.36-3.7c-11.26-9.88-10.87-13.73-10.87-13.73C78.93,173.36,79.94,170.82,79.94,170.82Z"/><path id="Path_340" data-name="Path 340" class="cls-1" d="M80.47,250.13c-.28-8.51,7.1-14.33,7.1-14.33l5.91-5.6,4.7-4.58,4.2-4.93,1.77-2.49s1,1.48,1.25,1.91,4.22,5.58,4.22,5.58l5.73,5.87a33.71,33.71,0,0,1,5.88,5.57c2.2,2.89,3.42,4.29,4.09,6a14.71,14.71,0,0,1,1.42,4.43,22.32,22.32,0,0,1-.14,4.4l-.76,2.43L124,257.15l-2.26,2.56-3.14,1-3.31.49-2.86-.11-3.19-1.17L106,257.88l-1.48-2.22a20.3,20.3,0,0,0,.33,4.26c.37,1.16.83,3.42,1.38,4.74s1.57,3.3,1.57,3.3l1,1.21-11,.05a15.39,15.39,0,0,0,2.33-4c.41-1.54,1.7-5.93,1.7-5.93l.59-3.4A7.81,7.81,0,0,1,99.22,259a29.42,29.42,0,0,1-5.71,1.82,27.75,27.75,0,0,1-5.36-.72,10.13,10.13,0,0,1-4.79-3.35,19.11,19.11,0,0,1-1.77-3.15Z"/></g></svg>